<?xml version="1.0" encoding="UTF-8" standalone="no"?>
<!-- Created with Inkscape (http://www.inkscape.org/) -->

<svg
   xmlns:dc="http://purl.org/dc/elements/1.1/"
   xmlns:cc="http://creativecommons.org/ns#"
   xmlns:rdf="http://www.w3.org/1999/02/22-rdf-syntax-ns#"
   xmlns:svg="http://www.w3.org/2000/svg"
   xmlns="http://www.w3.org/2000/svg"
   xmlns:xlink="http://www.w3.org/1999/xlink"
   xmlns:sodipodi="http://sodipodi.sourceforge.net/DTD/sodipodi-0.dtd"
   xmlns:inkscape="http://www.inkscape.org/namespaces/inkscape"
   width="200"
   height="200"
   id="svg2"
   version="1.1"
   inkscape:version="0.48.1 "
   sodipodi:docname="Icon_war2.svg"
   inkscape:export-filename="/home/nx/Documents/rw/wigobuttons/wigocp_redone50.png"
   inkscape:export-xdpi="22.5"
   inkscape:export-ydpi="22.5"
   style="display:inline">
  <defs
     id="defs4">
    <linearGradient
       id="linearGradient3684">
      <stop
         style="stop-color:#000000;stop-opacity:1;"
         offset="0"
         id="stop3686" />
      <stop
         id="stop3692"
         offset="0.89795917"
         style="stop-color:#000000;stop-opacity:0.86666667;" />
      <stop
         style="stop-color:#000000;stop-opacity:0;"
         offset="1"
         id="stop3688" />
    </linearGradient>
    <radialGradient
       r="97.496925"
       fy="188.21428"
       fx="236.78572"
       cy="188.21428"
       cx="236.78572"
       gradientUnits="userSpaceOnUse"
       id="radialGradient3884"
       xlink:href="#linearGradient3684"
       inkscape:collect="always" />
  </defs>
  <sodipodi:namedview
     id="base"
     pagecolor="#ffffff"
     bordercolor="#666666"
     borderopacity="1.0"
     inkscape:pageopacity="0"
     inkscape:pageshadow="2"
     inkscape:zoom="2.5600001"
     inkscape:cx="112.89525"
     inkscape:cy="101.1288"
     inkscape:document-units="px"
     inkscape:current-layer="layer1"
     showgrid="false"
     inkscape:window-width="1680"
     inkscape:window-height="998"
     inkscape:window-x="-8"
     inkscape:window-y="-8"
     inkscape:window-maximized="1"
     showguides="true"
     inkscape:guide-bbox="true" />
  <metadata
     id="metadata7">
    <rdf:RDF>
      <cc:Work
         rdf:about="">
        <dc:format>image/svg+xml</dc:format>
        <dc:type
           rdf:resource="http://purl.org/dc/dcmitype/StillImage" />
        <dc:title></dc:title>
      </cc:Work>
    </rdf:RDF>
  </metadata>
  <g
     inkscape:label="Layer 1"
     inkscape:groupmode="layer"
     id="layer1"
     transform="translate(0,-852.36218)"
     style="display:inline">
    <path
       sodipodi:type="arc"
       style="fill:url(#radialGradient3884);fill-opacity:1;stroke:none;display:inline"
       id="path3674"
       sodipodi:cx="236.78572"
       sodipodi:cy="188.21428"
       sodipodi:rx="97.496925"
       sodipodi:ry="97.496925"
       d="m 334.28265,188.21428 c 0,53.84606 -43.65086,97.49692 -97.49693,97.49692 -53.84606,0 -97.49692,-43.65086 -97.49692,-97.49692 0,-53.84607 43.65086,-97.496926 97.49692,-97.496926 53.84607,0 97.49693,43.650856 97.49693,97.496926 z"
       transform="translate(-134.78572,766.1479)" />
    <path
       transform="translate(-136.78572,764.1479)"
       d="m 324.92078,188.21428 c 0,48.67565 -39.45941,88.13506 -88.13506,88.13506 -48.67565,0 -88.13506,-39.45941 -88.13506,-88.13506 0,-48.67565 39.45941,-88.13506 88.13506,-88.13506 48.67565,0 88.13506,39.45941 88.13506,88.13506 z"
       sodipodi:ry="88.135063"
       sodipodi:rx="88.135063"
       sodipodi:cy="188.21428"
       sodipodi:cx="236.78572"
       id="path3625"
       style="fill:#696969;fill-opacity:1;stroke:#ffffff;stroke-width:8;stroke-miterlimit:4;stroke-opacity:1;stroke-dasharray:none"
       sodipodi:type="arc" />
  </g>
  <g
     id="g4107"
     transform="translate(-0.23905917,5.4209771e-6)">
    <g
       id="g4097">
      <path
         style="fill:#ffffff;stroke:none"
         d="M 146.85019,144.51646 C 126.31323,130.32466 116.85286,121.95369 101.86188,106.32496 86.835749,90.659583 70.594052,72.81145 66.096577,67.56021 61.373041,62.045023 52.32684,46.653551 52.32684,46.653551 l 97.195,95.191269 z"
         id="path3788"
         inkscape:connector-curvature="0"
         sodipodi:nodetypes="cssccc" />
      <path
         style="fill:#ffffff;stroke:none"
         d="M 150.02896,141.33769 C 135.83716,120.80073 127.46618,111.34036 111.83745,96.349376 96.172082,81.323248 78.32395,65.081551 73.07271,60.584075 67.557522,55.86054 52.166052,46.81434 52.166052,46.81434 l 95.191268,97.195 z"
         id="path3788-2"
         inkscape:connector-curvature="0"
         sodipodi:nodetypes="cssccc" />
      <path
         sodipodi:type="arc"
         style="fill:#ffffff;fill-opacity:1;stroke:none"
         id="path3826"
         sodipodi:cx="43.74036"
         sodipodi:cy="174.18253"
         sodipodi:rx="10.881748"
         sodipodi:ry="10.028277"
         d="m 54.622108,174.18253 c 0,5.53846 -4.871924,10.02827 -10.881748,10.02827 -6.009823,0 -10.881748,-4.48981 -10.881748,-10.02827 0,-5.53847 4.871925,-10.02828 10.881748,-10.02828 6.009824,0 10.881748,4.48981 10.881748,10.02828 z"
         transform="matrix(0.53731156,-0.53731156,0.58304023,0.58304023,25.532566,67.024468)" />
      <path
         sodipodi:type="arc"
         style="fill:#ffffff;fill-opacity:1;stroke:none"
         id="path3826-5"
         sodipodi:cx="43.74036"
         sodipodi:cy="174.18253"
         sodipodi:rx="10.881748"
         sodipodi:ry="10.028277"
         d="m 54.622108,174.18253 c 0,5.53846 -4.871924,10.02827 -10.881748,10.02827 -6.009823,0 -10.881748,-4.48981 -10.881748,-10.02827 0,-5.53847 4.871925,-10.02828 10.881748,-10.02828 6.009824,0 10.881748,4.48981 10.881748,10.02828 z"
         transform="matrix(0.42984925,-0.42984925,0.46643218,0.46643218,14.349489,76.915479)" />
      <path
         sodipodi:type="arc"
         style="fill:#ffffff;fill-opacity:1;stroke:none"
         id="path3826-5-3"
         sodipodi:cx="43.74036"
         sodipodi:cy="174.18253"
         sodipodi:rx="10.881748"
         sodipodi:ry="10.028277"
         d="m 54.622108,174.18253 c 0,5.53846 -4.871924,10.02827 -10.881748,10.02827 -6.009823,0 -10.881748,-4.48981 -10.881748,-10.02827 0,-5.53847 4.871925,-10.02828 10.881748,-10.02828 6.009824,0 10.881748,4.48981 10.881748,10.02828 z"
         transform="matrix(0.42984925,-0.42984925,0.46643218,0.46643218,44.824457,46.440511)" />
      <rect
         style="fill:#ffffff;fill-opacity:1;stroke:none"
         id="rect3868"
         width="33.874241"
         height="5.6457067"
         x="-13.039193"
         y="177.07855"
         transform="matrix(0.70710678,-0.70710678,0.70710678,0.70710678,0,0)" />
    </g>
    <use
       height="200"
       width="200"
       transform="matrix(-1,0,0,1,200.47812,0)"
       id="use4105"
       xlink:href="#g4097"
       y="0"
       x="0" />
  </g>
</svg>
